ply
format ascii 1.0
comment Created by Blender 2.69 (sub 0) - www.blender.org, source file: 'monkey.blend'
element vertex 598
property float x
property float y
property float z
property uchar red
property uchar green
property uchar blue
element face 500
property list uchar uint vertex_indices
end_header
0.468750 -0.757812 0.242187 225 60 63
0.437500 -0.765625 0.164062 226 60 63
0.500000 -0.687500 0.093750 132 75 69
0.562500 -0.671875 0.242187 112 79 70
-0.500000 -0.687500 0.093750 112 79 70
-0.437500 -0.765625 0.164062 226 60 63
-0.468750 -0.757812 0.242187 226 60 63
-0.562500 -0.671875 0.242187 112 79 70
0.500000 -0.687500 0.093750 112 79 70
0.546875 -0.578125 0.054687 112 79 70
0.625000 -0.562500 0.242187 113 80 71
-0.546875 -0.578125 0.054687 112 80 71
-0.500000 -0.687500 0.093750 113 80 71
-0.625000 -0.562500 0.242187 112 79 70
0.351562 -0.718750 0.031250 112 79 70
0.351562 -0.617188 -0.023438 112 79 70
-0.351562 -0.617188 -0.023438 112 79 70
-0.351562 -0.718750 0.031250 112 79 70
-0.546875 -0.578125 0.054687 113 80 71
0.351562 -0.781250 0.132812 226 60 63
-0.351562 -0.781250 0.132812 226 60 63
0.273438 -0.796875 0.164062 225 60 63
0.203125 -0.742188 0.093750 112 79 70
-0.203125 -0.742188 0.093750 112 79 70
-0.273438 -0.796875 0.164062 226 60 63
0.156250 -0.648438 0.054687 112 79 70
-0.156250 -0.648438 0.054687 112 79 70
0.203125 -0.742188 0.093750 255 255 255
0.140625 -0.742188 0.242187 255 255 255
0.078125 -0.656250 0.242187 255 255 255
0.156250 -0.648438 0.054687 255 255 255
-0.078125 -0.656250 0.242187 255 255 255
-0.140625 -0.742188 0.242187 255 255 255
-0.203125 -0.742188 0.093750 255 255 255
-0.156250 -0.648438 0.054687 255 255 255
0.242188 -0.796875 0.242187 220 61 64
0.140625 -0.742188 0.242187 112 79 70
-0.140625 -0.742188 0.242187 112 79 70
-0.242188 -0.796875 0.242187 226 60 63
0.273438 -0.796875 0.328125 223 61 64
0.203125 -0.742188 0.390625 112 79 70
-0.203125 -0.742188 0.390625 112 79 70
-0.273438 -0.796875 0.328125 225 60 63
0.203125 -0.742188 0.390625 255 255 255
0.156250 -0.648438 0.437500 255 255 255
-0.156250 -0.648438 0.437500 255 255 255
-0.203125 -0.742188 0.390625 255 255 255
0.351562 -0.718750 0.453125 255 255 255
0.351562 -0.617188 0.515625 255 255 255
-0.351562 -0.617188 0.515625 255 255 255
-0.351562 -0.718750 0.453125 255 255 255
0.351562 -0.781250 0.359375 219 62 64
0.351562 -0.718750 0.453125 112 79 70
-0.351562 -0.718750 0.453125 112 79 70
-0.351562 -0.781250 0.359375 223 61 64
0.437500 -0.765625 0.328125 226 60 63
0.500000 -0.687500 0.390625 112 79 70
-0.500000 -0.687500 0.390625 112 79 70
-0.437500 -0.765625 0.328125 225 61 63
0.500000 -0.687500 0.390625 255 255 255
0.546875 -0.578125 0.437500 255 255 255
-0.546875 -0.578125 0.437500 255 255 255
-0.500000 -0.687500 0.390625 255 255 255
0.546875 -0.578125 0.437500 112 79 70
-0.546875 -0.578125 0.437500 112 79 70
0.468750 -0.757812 0.242187 112 79 70
0.437500 -0.765625 0.328125 112 79 70
0.445312 -0.781250 0.335937 112 79 70
0.476562 -0.773438 0.242187 112 79 70
-0.445312 -0.781250 0.335937 112 79 70
-0.437500 -0.765625 0.328125 112 79 70
-0.468750 -0.757812 0.242187 112 79 70
-0.476562 -0.773438 0.242187 112 79 70
0.351562 -0.781250 0.359375 112 79 70
0.351562 -0.804688 0.375000 112 79 70
-0.351562 -0.804688 0.375000 121 89 81
-0.351562 -0.781250 0.359375 118 86 77
0.273438 -0.796875 0.328125 112 79 70
0.265625 -0.820312 0.335937 112 79 70
-0.265625 -0.820312 0.335937 112 79 70
-0.273438 -0.796875 0.328125 112 79 70
-0.351562 -0.781250 0.359375 112 79 70
-0.351562 -0.804688 0.375000 112 79 70
0.273438 -0.796875 0.328125 141 75 69
0.242188 -0.796875 0.242187 199 65 64
0.226562 -0.820312 0.242187 179 67 66
0.265625 -0.820312 0.335937 142 74 68
-0.226562 -0.820312 0.242187 112 79 70
-0.242188 -0.796875 0.242187 112 79 70
0.242188 -0.796875 0.242187 112 79 70
0.273438 -0.796875 0.164062 112 79 70
0.265625 -0.820312 0.156250 112 79 70
0.226562 -0.820312 0.242187 112 79 70
-0.265625 -0.820312 0.156250 112 79 70
-0.273438 -0.796875 0.164062 112 79 70
0.273438 -0.796875 0.164062 255 255 255
0.351562 -0.781250 0.132812 255 255 255
0.351562 -0.804688 0.117187 255 255 255
0.265625 -0.820312 0.156250 255 255 255
-0.351562 -0.804688 0.117187 112 79 70
-0.351562 -0.781250 0.132812 112 79 70
0.351562 -0.781250 0.132812 112 79 70
0.437500 -0.765625 0.164062 112 79 70
0.445312 -0.781250 0.156250 112 79 70
0.351562 -0.804688 0.117187 112 79 70
-0.445312 -0.781250 0.156250 112 79 70
-0.437500 -0.765625 0.164062 112 79 70
0.351562 -0.828125 0.242187 226 221 52
0.445312 -0.781250 0.156250 207 64 64
0.476562 -0.773438 0.242187 210 63 64
-0.476562 -0.773438 0.242187 208 63 64
-0.445312 -0.781250 0.156250 221 61 64
-0.351562 -0.828125 0.242187 226 221 52
0.351562 -0.804688 0.117187 173 69 66
-0.351562 -0.804688 0.117187 226 60 63
0.265625 -0.820312 0.156250 193 66 66
-0.265625 -0.820312 0.156250 197 66 65
0.226562 -0.820312 0.242187 188 66 66
-0.226562 -0.820312 0.242187 220 61 64
0.265625 -0.820312 0.335937 205 64 65
-0.265625 -0.820312 0.335937 202 63 65
0.351562 -0.804688 0.375000 156 72 68
-0.351562 -0.804688 0.375000 181 68 66
0.445312 -0.781250 0.335937 216 62 64
-0.445312 -0.781250 0.335937 193 66 66
0.179688 -0.554687 -0.968750 112 79 70
0.164062 -0.632812 -0.929688 112 79 70
0.000000 -0.640625 -0.945312 112 79 70
0.000000 -0.578125 -0.984375 112 79 70
-0.164062 -0.632812 -0.929688 112 79 70
-0.179688 -0.554687 -0.968750 112 79 70
0.328125 -0.523437 -0.945312 112 79 70
0.234375 -0.632812 -0.914062 112 79 70
-0.234375 -0.632812 -0.914062 112 79 70
-0.328125 -0.523437 -0.945312 116 84 75
-0.179688 -0.554687 -0.968750 115 83 74
0.367188 -0.531250 -0.890625 112 79 70
0.265625 -0.664062 -0.820312 112 79 70
-0.265625 -0.664062 -0.820312 112 79 70
-0.367188 -0.531250 -0.890625 113 80 71
-0.328125 -0.523437 -0.945312 113 80 71
0.351562 -0.570312 -0.695312 112 79 70
0.250000 -0.687500 -0.703125 112 79 70
-0.250000 -0.687500 -0.703125 112 79 70
-0.351562 -0.570312 -0.695312 112 79 70
0.312500 -0.570312 -0.437500 112 79 70
0.210938 -0.710938 -0.445313 112 79 70
-0.210938 -0.710938 -0.445313 113 81 72
-0.312500 -0.570312 -0.437500 112 79 70
0.203125 -0.562500 -0.187500 112 79 70
0.437500 -0.531250 -0.140625 112 79 70
0.398438 -0.671875 -0.046875 112 79 70
0.125000 -0.812500 -0.101563 112 79 70
-0.398438 -0.671875 -0.046875 112 79 70
-0.437500 -0.531250 -0.140625 112 79 70
-0.203125 -0.562500 -0.187500 112 79 70
-0.125000 -0.812500 -0.101563 112 79 70
0.632812 -0.539062 -0.039063 112 79 70
0.617188 -0.625000 0.054687 112 79 70
-0.617188 -0.625000 0.054687 112 79 70
-0.632812 -0.539062 -0.039063 112 79 70
0.828125 -0.445312 0.148437 112 79 70
0.726562 -0.601562 0.203125 113 80 71
-0.726562 -0.601562 0.203125 112 79 70
-0.828125 -0.445312 0.148437 112 79 70
0.859375 -0.593750 0.429687 112 79 70
0.742188 -0.656250 0.375000 112 79 70
-0.742188 -0.656250 0.375000 112 79 70
-0.859375 -0.593750 0.429687 112 79 70
0.710938 -0.625000 0.484375 112 79 70
0.687500 -0.726562 0.414062 112 79 70
-0.687500 -0.726562 0.414062 112 79 70
-0.710938 -0.625000 0.484375 112 79 70
0.492188 -0.687500 0.601562 112 79 70
0.437500 -0.796875 0.546875 151 151 148
-0.437500 -0.796875 0.546875 151 151 148
-0.492188 -0.687500 0.601562 112 79 70
0.320312 -0.734375 0.757812 112 79 70
0.312500 -0.835938 0.640625 150 149 146
-0.312500 -0.835938 0.640625 151 151 148
-0.320312 -0.734375 0.757812 112 79 70
0.156250 -0.757813 0.718750 112 79 70
0.203125 -0.851562 0.617187 112 79 70
-0.203125 -0.851562 0.617187 114 84 75
-0.156250 -0.757813 0.718750 112 79 70
0.062500 -0.750000 0.492187 112 79 70
0.101562 -0.843750 0.429687 112 79 70
-0.101562 -0.843750 0.429687 112 79 70
-0.062500 -0.750000 0.492187 112 79 70
0.000000 -0.742188 0.429687 112 79 70
0.000000 -0.820312 0.351562 112 79 70
0.164062 -0.773438 0.414062 112 79 70
0.250000 -0.757812 0.468750 112 79 70
-0.250000 -0.757812 0.468750 112 79 70
-0.164062 -0.773438 0.414062 112 79 70
0.328125 -0.742188 0.476562 112 79 70
-0.328125 -0.742188 0.476562 112 79 70
0.429688 -0.718750 0.437500 112 79 70
-0.429688 -0.718750 0.437500 112 79 70
0.601562 -0.664062 0.375000 112 79 70
-0.601562 -0.664062 0.375000 115 86 77
0.640625 -0.648438 0.296875 112 79 70
-0.640625 -0.648438 0.296875 112 79 70
0.625000 -0.648438 0.187500 112 79 70
0.726562 -0.601562 0.203125 112 79 70
-0.625000 -0.648438 0.187500 112 79 70
0.492188 -0.671875 0.062500 119 78 70
-0.492188 -0.671875 0.062500 112 79 70
0.375000 -0.703125 0.015625 112 79 70
-0.375000 -0.703125 0.015625 112 79 70
0.203125 -0.742188 0.093750 112 79 70
-0.203125 -0.742188 0.093750 112 79 70
0.164062 -0.750000 0.140625 112 79 70
0.000000 -0.726562 0.046875 112 79 70
-0.164062 -0.750000 0.140625 112 79 70
0.125000 -0.765625 0.304687 112 79 70
-0.125000 -0.765625 0.304687 112 79 70
0.000000 -0.765625 0.210937 112 79 70
0.132812 -0.757812 0.210937 112 79 70
-0.132812 -0.757812 0.210937 112 79 70
0.062500 -0.695312 -0.882813 112 79 70
0.000000 -0.687500 -0.890625 112 79 70
-0.062500 -0.695312 -0.882813 112 79 70
0.117188 -0.710937 -0.835938 112 79 70
-0.117188 -0.710937 -0.835938 112 79 70
0.109375 -0.734375 -0.718750 112 79 70
-0.109375 -0.734375 -0.718750 112 79 70
0.078125 -0.750000 -0.445313 112 79 70
0.117188 -0.734375 -0.687500 112 79 70
-0.117188 -0.734375 -0.687500 112 79 70
-0.078125 -0.750000 -0.445313 112 79 70
-0.210938 -0.710938 -0.445313 112 79 70
0.085938 -0.742188 -0.289063 112 79 70
0.000000 -0.742188 -0.328125 112 79 70
0.000000 -0.750000 -0.445313 112 79 70
-0.085938 -0.742188 -0.289063 104 73 65
0.000000 -0.734375 -0.679688 112 79 70
0.000000 -0.734375 -0.765625 119 75 66
0.125000 -0.750000 -0.226563 112 79 70
0.132812 -0.796875 -0.226563 80 56 49
0.093750 -0.781250 -0.273438 2 1 1
-0.093750 -0.781250 -0.273438 0 0 0
-0.132812 -0.796875 -0.226563 26 18 17
-0.125000 -0.750000 -0.226563 112 79 70
-0.085938 -0.742188 -0.289063 112 79 70
0.101562 -0.742188 -0.148438 112 79 70
0.109375 -0.781250 -0.132813 112 79 70
0.132812 -0.796875 -0.226563 82 57 50
-0.109375 -0.781250 -0.132813 102 72 63
-0.101562 -0.742188 -0.148438 112 79 70
0.000000 -0.742188 -0.140625 112 79 70
0.039062 -0.781250 -0.125000 97 68 60
0.109375 -0.781250 -0.132813 112 80 71
-0.039062 -0.781250 -0.125000 9 6 5
0.000000 -0.750000 -0.195313 84 60 52
0.000000 -0.796875 -0.187500 97 68 60
0.000000 -0.796875 -0.187500 112 79 70
0.000000 -0.750000 -0.195313 86 61 53
0.000000 -0.742188 -0.140625 113 80 71
0.000000 -0.781250 -0.320313 1 1 1
0.078125 -0.804688 -0.250000 0 0 0
0.000000 -0.804688 -0.289063 4 3 2
-0.078125 -0.804688 -0.250000 0 0 0
0.000000 -0.828125 -0.203125 0 0 0
0.046875 -0.812500 -0.148438 0 0 0
-0.046875 -0.812500 -0.148438 0 0 0
0.093750 -0.812500 -0.156250 10 7 6
-0.093750 -0.812500 -0.156250 0 0 0
0.109375 -0.828125 -0.226563 1 0 0
-0.109375 -0.828125 -0.226563 1 1 1
0.101562 -0.742188 -0.148438 99 70 62
0.164062 -0.710938 -0.242188 112 79 70
-0.164062 -0.710938 -0.242188 112 79 70
0.179688 -0.710938 -0.312500 112 79 70
-0.179688 -0.710938 -0.312500 112 79 70
0.257812 -0.554688 -0.312500 112 79 70
-0.257812 -0.554688 -0.312500 112 79 70
0.234375 -0.554688 -0.250000 112 79 70
-0.234375 -0.554688 -0.250000 112 79 70
0.000000 -0.718750 -0.773438 175 39 34
0.093750 -0.726562 -0.742188 178 38 33
-0.093750 -0.726562 -0.742188 178 38 33
0.093750 -0.710937 -0.820313 178 38 33
-0.093750 -0.710937 -0.820313 176 40 34
0.046875 -0.687500 -0.867188 176 40 34
-0.046875 -0.687500 -0.867188 178 38 33
0.000000 -0.687500 -0.875000 178 38 33
0.046875 -0.632812 -0.851562 178 38 33
0.000000 -0.632812 -0.859375 178 38 33
-0.046875 -0.632812 -0.851562 178 38 33
0.093750 -0.640625 -0.812500 178 38 33
-0.093750 -0.640625 -0.812500 178 38 33
0.093750 -0.664062 -0.750000 178 38 33
-0.093750 -0.664062 -0.750000 178 38 33
0.000000 -0.718750 -0.773438 172 42 36
0.000000 -0.656250 -0.781250 178 38 33
0.187500 -0.773438 0.156250 112 79 70
0.171875 -0.781250 0.218750 112 79 70
-0.187500 -0.773438 0.156250 112 79 70
-0.171875 -0.781250 0.218750 112 79 70
0.179688 -0.781250 0.296875 112 79 70
-0.179688 -0.781250 0.296875 112 79 70
0.210938 -0.781250 0.375000 112 79 70
-0.210938 -0.781250 0.375000 112 79 70
0.226562 -0.781250 0.109375 112 79 70
-0.226562 -0.781250 0.109375 112 79 70
0.375000 -0.742188 0.062500 112 79 70
-0.375000 -0.742188 0.062500 133 75 69
0.476562 -0.718750 0.101562 136 75 69
-0.476562 -0.718750 0.101562 113 79 70
0.578125 -0.679688 0.195312 112 79 70
-0.578125 -0.679688 0.195312 112 79 70
0.585938 -0.687500 0.289062 112 79 70
-0.585938 -0.687500 0.289062 112 79 70
0.562500 -0.695312 0.351562 112 79 70
-0.562500 -0.695312 0.351562 112 79 70
0.421875 -0.773438 0.398437 112 79 70
-0.421875 -0.773438 0.398437 112 79 70
0.335938 -0.757812 0.429687 112 79 70
-0.335938 -0.757812 0.429687 112 79 70
0.273438 -0.773438 0.421875 112 79 70
-0.273438 -0.773438 0.421875 112 79 70
0.234375 -0.757812 0.359375 112 79 70
0.281250 -0.765625 0.398437 112 79 70
-0.234375 -0.757812 0.359375 112 79 70
-0.281250 -0.765625 0.398437 112 79 70
0.335938 -0.750000 0.406250 112 79 70
-0.335938 -0.750000 0.406250 112 79 70
0.414062 -0.750000 0.390625 114 79 70
-0.414062 -0.750000 0.390625 112 79 70
0.531250 -0.679688 0.335937 112 79 70
-0.531250 -0.679688 0.335937 112 79 70
0.554688 -0.671875 0.281250 112 79 70
-0.554688 -0.671875 0.281250 112 79 70
0.546875 -0.671875 0.210937 112 79 70
-0.546875 -0.671875 0.210937 112 79 70
0.460938 -0.703125 0.117187 223 61 63
-0.460938 -0.703125 0.117187 182 68 66
0.375000 -0.726562 0.085937 139 74 68
-0.375000 -0.726562 0.085937 224 61 63
0.242188 -0.757812 0.125000 112 79 70
-0.242188 -0.757812 0.125000 112 79 70
0.203125 -0.750000 0.171875 112 79 70
-0.203125 -0.750000 0.171875 112 79 70
0.195312 -0.757812 0.296875 112 79 70
-0.195312 -0.757812 0.296875 112 79 70
0.195312 -0.750000 0.226562 112 79 70
-0.195312 -0.750000 0.226562 115 79 70
0.109375 -0.609375 0.460937 112 79 70
0.000000 -0.601562 0.406250 112 79 70
-0.109375 -0.609375 0.460937 112 79 70
0.195312 -0.617188 0.664062 112 79 70
-0.195312 -0.617188 0.664062 112 79 70
0.335938 -0.593750 0.687500 112 79 70
-0.335938 -0.593750 0.687500 112 79 70
0.484375 -0.554688 0.554688 112 79 70
-0.484375 -0.554688 0.554688 112 79 70
0.679688 -0.492188 0.453125 112 79 70
-0.679688 -0.492188 0.453125 112 79 70
0.796875 -0.460938 0.406250 112 79 70
-0.796875 -0.460938 0.406250 112 79 70
0.773438 -0.375000 0.164062 112 79 70
-0.773438 -0.375000 0.164062 112 79 70
0.601562 -0.414062 -0.000000 112 79 70
-0.601562 -0.414062 -0.000000 112 79 70
0.437500 -0.468750 -0.093750 112 79 70
-0.437500 -0.468750 -0.093750 112 79 70
0.000000 -0.320312 -0.570312 112 79 70
0.000000 -0.281250 -0.484375 112 79 70
0.179688 -0.257812 -0.414062 112 79 70
0.125000 -0.359375 -0.539062 112 79 70
-0.179688 -0.257812 -0.414062 112 79 70
-0.125000 -0.359375 -0.539062 112 79 70
0.000000 -0.343750 -0.804688 112 79 70
0.140625 -0.367187 -0.757812 112 79 70
-0.140625 -0.367187 -0.757812 112 79 70
0.000000 -0.460937 -0.976562 112 79 70
0.164062 -0.437500 -0.945312 112 79 70
-0.164062 -0.437500 -0.945312 112 79 70
0.328125 -0.398437 -0.914062 112 79 70
-0.328125 -0.523437 -0.945312 112 79 70
-0.328125 -0.398437 -0.914062 112 79 70
0.289062 -0.382812 -0.710938 112 79 70
-0.367188 -0.531250 -0.890625 112 79 70
-0.289062 -0.382812 -0.710938 112 79 70
0.250000 -0.390625 -0.500000 112 79 70
-0.250000 -0.390625 -0.500000 112 79 70
0.234375 -0.406250 -0.351563 112 79 70
-0.234375 -0.406250 -0.351563 112 79 70
0.218750 -0.429688 -0.281250 112 79 70
0.210938 -0.468750 -0.226563 112 79 70
-0.210938 -0.468750 -0.226563 112 79 70
-0.218750 -0.429688 -0.281250 112 79 70
0.203125 -0.500000 -0.171875 112 79 70
-0.203125 -0.500000 -0.171875 112 79 70
0.000000 0.828125 0.070313 112 79 70
0.335938 0.664062 0.054688 112 79 70
0.343750 0.539062 -0.148437 112 79 70
0.000000 0.671875 -0.195312 112 79 70
-0.343750 0.539062 -0.148437 112 79 70
-0.335938 0.664062 0.054688 112 79 70
0.296875 0.265625 -0.312500 112 79 70
0.000000 0.351563 -0.382812 112 79 70
-0.296875 0.265625 -0.312500 112 79 70
0.210938 -0.164062 -0.390625 112 79 70
0.000000 -0.187500 -0.460938 112 79 70
-0.210938 -0.164062 -0.390625 112 79 70
0.734375 -0.070312 -0.046875 112 79 70
0.851562 -0.054688 0.234375 112 79 70
-0.734375 -0.070312 -0.046875 112 79 70
-0.851562 -0.054688 0.234375 112 79 70
0.000000 0.851562 0.562500 112 79 70
0.460938 0.703125 0.437500 112 79 70
-0.460938 0.703125 0.437500 112 79 70
0.000000 -0.289063 0.898438 112 79 70
0.453125 -0.234375 0.851562 112 79 70
0.453125 0.070312 0.929688 112 79 70
0.000000 0.078125 0.984375 112 79 70
-0.453125 0.070312 0.929688 112 79 70
-0.453125 -0.234375 0.851562 112 79 70
0.453125 0.382812 0.867188 112 79 70
0.000000 0.546875 0.898438 112 79 70
-0.453125 0.382812 0.867188 112 79 70
0.726562 -0.335938 0.406250 112 79 70
0.632812 -0.281250 0.453125 112 79 70
-0.726562 -0.335938 0.406250 112 79 70
-0.632812 -0.281250 0.453125 112 79 70
0.796875 -0.125000 0.562500 112 79 70
0.640625 -0.054688 0.703125 112 79 70
-0.796875 -0.125000 0.562500 112 79 70
-0.640625 -0.054688 0.703125 112 79 70
0.796875 0.117187 0.617188 112 79 70
0.640625 0.195312 0.750000 112 79 70
-0.796875 0.117187 0.617188 112 79 70
-0.640625 0.195312 0.750000 112 79 70
0.796875 0.359375 0.539062 112 79 70
0.640625 0.445312 0.679688 112 79 70
-0.796875 0.359375 0.539062 112 79 70
-0.640625 0.445312 0.679688 112 79 70
0.773438 0.437500 0.265625 112 79 70
0.617188 0.585938 0.328125 112 79 70
-0.617188 0.585938 0.328125 112 79 70
-0.773438 0.437500 0.265625 112 79 70
0.460938 -0.429688 0.523438 112 79 70
-0.460938 -0.429688 0.523438 112 79 70
0.000000 -0.570312 0.570312 112 79 70
0.859375 0.046875 0.320312 112 79 70
-0.859375 0.046875 0.320312 112 79 70
0.820312 0.203125 0.328125 112 79 70
-0.796875 0.117187 0.617188 121 89 81
-0.820312 0.203125 0.328125 112 79 70
0.429688 0.210938 -0.195312 112 79 70
0.406250 -0.148437 -0.171875 112 79 70
-0.429688 0.210938 -0.195312 112 79 70
-0.406250 -0.148437 -0.171875 112 79 70
0.593750 0.164062 -0.125000 112 79 70
-0.593750 0.164062 -0.125000 112 79 70
-0.437500 -0.468750 -0.093750 112 80 71
0.640625 0.429688 -0.007812 112 79 70
0.484375 0.546875 0.023438 112 79 70
-0.484375 0.546875 0.023438 112 79 70
-0.640625 0.429688 -0.007812 112 79 70
-0.617188 0.585938 0.328125 115 83 74
1.023438 0.312500 0.476562 112 79 70
0.890625 0.234375 0.406250 112 79 70
0.921875 0.218750 0.359375 112 79 70
1.015625 0.289062 0.414062 112 79 70
-0.921875 0.218750 0.359375 112 79 70
-0.890625 0.234375 0.406250 112 79 70
-1.023438 0.312500 0.476562 112 79 70
-1.015625 0.289062 0.414062 112 79 70
1.187500 0.390625 0.437500 112 79 70
1.234375 0.421875 0.507812 112 79 70
-1.187500 0.390625 0.437500 112 79 70
-1.234375 0.421875 0.507812 114 81 72
1.265625 0.406250 0.289063 112 79 70
1.351562 0.421875 0.320313 112 79 70
-1.265625 0.406250 0.289063 112 79 70
-1.351562 0.421875 0.320313 112 79 70
1.210938 0.406250 0.078125 112 79 70
1.281250 0.429688 0.054688 112 79 70
-1.210938 0.406250 0.078125 112 79 70
-1.281250 0.429688 0.054688 112 79 70
1.031250 0.304688 -0.039062 112 79 70
1.039062 0.328125 -0.101562 112 79 70
-1.031250 0.304688 -0.039062 112 79 70
-1.039062 0.328125 -0.101562 112 79 70
0.828125 0.132812 -0.070312 112 79 70
0.773438 0.125000 -0.140625 112 79 70
-0.828125 0.132812 -0.070312 112 79 70
-0.773438 0.125000 -0.140625 112 79 70
1.039062 0.367188 0.000000 112 79 70
0.882812 0.210938 -0.023437 112 79 70
-0.882812 0.210938 -0.023437 112 79 70
-1.039062 0.367188 0.000000 112 79 70
1.187500 0.445312 0.093750 112 79 70
-1.187500 0.445312 0.093750 112 79 70
1.234375 0.445312 0.250000 112 79 70
-1.234375 0.445312 0.250000 112 79 70
1.171875 0.437500 0.359375 112 79 70
-1.171875 0.437500 0.359375 112 79 70
1.023438 0.359375 0.343750 112 79 70
-1.023438 0.359375 0.343750 112 79 70
0.945312 0.289062 0.304688 112 79 70
-0.945312 0.289062 0.304688 112 79 70
0.718750 0.171875 -0.023437 112 79 70
0.726562 0.070312 0.000000 112 79 70
-0.718750 0.171875 -0.023437 112 79 70
-0.726562 0.070312 0.000000 112 79 70
0.843750 0.210937 0.289062 112 79 70
-0.843750 0.210937 0.289062 112 79 70
0.812500 0.273438 -0.015625 112 79 70
-0.812500 0.273438 -0.015625 112 79 70
0.843750 0.273438 0.015625 129 110 104
0.718750 0.187500 0.039063 112 79 70
-0.718750 0.187500 0.039063 112 79 70
-0.843750 0.273438 0.015625 112 79 70
0.757812 0.273438 0.093750 112 79 70
0.820312 0.273438 0.085938 127 107 100
-0.757812 0.273438 0.093750 112 79 70
-0.820312 0.273438 0.085938 112 79 70
0.835938 0.273438 0.171875 112 79 70
0.796875 0.210937 0.203125 112 79 70
-0.796875 0.210937 0.203125 112 79 70
-0.835938 0.273438 0.171875 112 79 70
0.890625 0.265625 0.242188 112 79 70
-0.890625 0.265625 0.242188 112 79 70
0.890625 0.320312 0.234375 112 79 70
0.953125 0.343750 0.289063 112 79 70
-0.890625 0.320312 0.234375 112 79 70
-0.953125 0.343750 0.289063 112 79 70
0.843750 0.320312 0.171875 112 79 70
-0.843750 0.320312 0.171875 112 79 70
0.765625 0.320312 0.093750 112 79 70
-0.765625 0.320312 0.093750 112 79 70
0.828125 0.320312 0.078125 151 151 148
-0.828125 0.320312 0.078125 132 116 110
0.851562 0.320312 0.015625 137 125 119
-0.851562 0.320312 0.015625 113 82 73
0.812500 0.320312 -0.015625 112 79 70
-0.812500 0.320312 -0.015625 175 157 152
-0.812500 0.273438 -0.015625 128 98 91
-0.843750 0.273438 0.015625 191 177 173
-0.851562 0.320312 0.015625 239 237 235
0.882812 0.265625 -0.015625 112 79 70
-0.882812 0.265625 -0.015625 112 79 70
-0.812500 0.320312 -0.015625 112 79 70
1.039062 0.414062 0.328125 112 79 70
-1.039062 0.414062 0.328125 112 79 70
1.187500 0.484375 0.343750 112 79 70
-1.187500 0.484375 0.343750 126 105 98
1.234375 0.445312 0.250000 255 255 255
1.171875 0.437500 0.359375 255 255 255
1.187500 0.484375 0.343750 255 255 255
1.257812 0.492188 0.242188 255 255 255
-1.187500 0.484375 0.343750 112 79 70
-1.257812 0.492188 0.242188 112 79 70
1.187500 0.445312 0.093750 255 255 255
1.210938 0.484375 0.085938 255 255 255
-1.210938 0.484375 0.085938 112 79 70
1.210938 0.484375 0.085938 117 85 76
1.046875 0.421875 0.000000 112 79 70
-1.046875 0.421875 0.000000 112 79 70
0.937500 0.335938 0.062500 151 151 148
0.890625 0.328125 0.109375 151 151 148
-0.937500 0.335938 0.062500 151 151 148
-0.890625 0.328125 0.109375 151 151 148
1.000000 0.367188 0.125000 151 151 148
0.960938 0.351562 0.171875 151 151 148
-1.000000 0.367188 0.125000 151 151 148
-0.960938 0.351562 0.171875 151 151 148
1.054688 0.382812 0.187500 151 151 148
1.015625 0.375000 0.234375 151 151 148
-1.054688 0.382812 0.187500 151 151 148
-1.015625 0.375000 0.234375 151 151 148
1.109375 0.390625 0.210938 151 151 148
1.085938 0.390625 0.273438 149 148 145
-1.109375 0.390625 0.210938 151 151 148
-1.085938 0.390625 0.273438 151 151 148
1.210938 0.484375 0.085938 112 79 70
1.257812 0.492188 0.242188 112 79 70
0.789062 0.328125 -0.125000 112 79 70
1.039062 0.492188 -0.085937 112 79 70
-0.789062 0.328125 -0.125000 112 79 70
-1.039062 0.492188 -0.085937 112 79 70
1.312500 0.531250 0.054688 112 79 70
-1.281250 0.429688 0.054688 134 106 99
-1.312500 0.531250 0.054688 138 110 103
1.367188 0.500000 0.296875 112 79 70
-1.312500 0.531250 0.054688 112 79 70
-1.367188 0.500000 0.296875 112 79 70
1.250000 0.546875 0.468750 112 79 70
-1.234375 0.421875 0.507812 112 79 70
-1.250000 0.546875 0.468750 112 79 70
1.023438 0.484375 0.437500 112 79 70
-1.023438 0.484375 0.437500 112 79 70
0.859375 0.382812 0.382813 112 79 70
-0.859375 0.382812 0.382813 112 79 70
4 0 1 2 3
4 4 5 6 7
4 3 8 9 10
4 11 12 7 13
4 8 14 15 9
4 16 17 4 18
4 1 19 14 2
4 17 20 5 4
4 19 21 22 14
4 23 24 20 17
4 14 22 25 15
4 26 23 17 16
4 27 28 29 30
4 31 32 33 34
4 21 35 36 22
4 37 38 24 23
4 35 39 40 36
4 41 42 38 37
4 28 43 44 29
4 45 46 32 31
4 43 47 48 44
4 49 50 46 45
4 39 51 52 40
4 53 54 42 41
4 51 55 56 52
4 57 58 54 53
4 47 59 60 48
4 61 62 50 49
4 56 3 10 63
4 13 7 57 64
4 55 0 3 56
4 7 6 58 57
4 65 66 67 68
4 69 70 71 72
4 66 73 74 67
4 75 76 70 69
4 73 77 78 74
4 79 80 81 82
4 83 84 85 86
4 87 88 80 79
4 89 90 91 92
4 93 94 88 87
4 95 96 97 98
4 99 100 94 93
4 101 102 103 104
4 105 106 100 99
4 102 65 68 103
4 72 71 106 105
3 107 108 109
3 110 111 112
3 113 108 107
3 112 111 114
3 107 115 113
3 114 116 112
3 107 117 115
3 116 118 112
3 107 119 117
3 118 120 112
3 107 121 119
3 120 122 112
3 107 123 121
3 122 124 112
3 107 109 123
3 124 110 112
4 125 126 127 128
4 127 129 130 128
4 131 132 126 125
4 129 133 134 135
4 136 137 132 131
4 133 138 139 140
4 141 142 137 136
4 138 143 144 139
4 145 146 142 141
4 143 147 148 144
4 149 150 151 152
4 153 154 155 156
4 150 157 158 151
4 159 160 154 153
4 157 161 162 158
4 163 164 160 159
4 161 165 166 162
4 167 168 164 163
4 165 169 170 166
4 171 172 168 167
4 169 173 174 170
4 175 176 172 171
4 173 177 178 174
4 179 180 176 175
4 177 181 182 178
4 183 184 180 179
4 181 185 186 182
4 187 188 184 183
4 185 189 190 186
4 190 189 188 187
4 191 192 182 186
4 183 193 194 187
4 192 195 178 182
4 179 196 193 183
4 197 174 178 195
4 179 175 198 196
4 199 170 174 197
4 175 171 200 198
4 201 166 170 199
4 171 167 202 200
4 203 204 166 201
4 167 163 205 202
4 206 158 204 203
4 163 159 207 205
4 208 151 158 206
4 159 153 209 207
4 210 152 151 208
4 153 156 211 209
4 210 212 213 152
4 213 214 211 156
4 191 186 190 215
4 190 187 194 216
4 215 190 217 218
4 217 190 216 219
4 213 212 218 217
4 219 214 213 217
4 220 221 127 126
4 127 221 222 129
4 223 220 126 132
4 129 222 224 133
4 225 223 132 137
4 133 224 226 138
4 146 227 228 142
4 229 230 231 143
4 225 137 142 228
4 143 138 226 229
4 232 233 234 227
4 234 233 235 230
4 228 227 234 236
4 234 230 229 236
4 237 225 228 236
4 229 226 237 236
4 238 239 240 232
4 241 242 243 244
4 245 246 247 238
4 242 248 249 243
4 250 251 252 245
4 248 253 250 249
4 254 255 251 250
4 253 256 257 258
4 233 232 240 259
4 241 244 233 259
4 259 240 260 261
4 262 241 259 261
4 255 263 264 251
4 265 263 255 253
4 251 264 266 246
4 267 265 253 248
4 246 266 268 239
4 269 267 248 242
4 239 268 260 240
4 262 269 242 241
4 263 268 266 264
4 267 269 263 265
4 263 261 260 268
4 262 261 263 269
4 250 245 152 213
4 156 249 250 213
4 270 238 271 152
4 272 243 249 156
4 238 232 273 271
4 274 235 243 272
4 232 227 146 273
4 231 230 235 274
4 145 275 273 146
4 274 276 148 147
4 275 277 271 273
4 272 278 276 274
4 149 152 271 277
4 272 156 155 278
4 225 237 279 280
4 279 237 226 281
4 223 225 280 282
4 281 226 224 283
4 220 223 282 284
4 283 224 222 285
4 221 220 284 286
4 285 222 221 286
4 286 284 287 288
4 289 285 286 288
4 284 282 290 287
4 291 283 285 289
4 282 280 292 290
4 293 281 283 291
4 280 294 295 292
4 295 294 281 293
4 295 288 287 292
4 289 288 295 293
3 292 287 290
3 291 289 293
4 218 212 296 297
4 298 214 219 299
4 215 218 297 300
4 299 219 216 301
4 191 215 300 302
4 301 216 194 303
4 212 210 304 296
4 305 211 214 298
4 210 208 306 304
4 307 209 211 305
4 208 206 308 306
4 309 207 209 307
4 206 203 310 308
4 311 205 207 309
4 203 201 312 310
4 313 202 205 311
4 201 199 314 312
4 315 200 202 313
4 199 197 316 314
4 317 198 200 315
4 197 195 318 316
4 319 196 198 317
4 195 192 320 318
4 321 193 196 319
4 192 191 302 320
4 303 194 193 321
4 320 302 322 323
4 324 303 321 325
4 318 320 323 326
4 325 321 319 327
4 316 318 326 328
4 327 319 317 329
4 314 316 328 330
4 329 317 315 331
4 312 314 330 332
4 331 315 313 333
4 310 312 332 334
4 333 313 311 335
4 308 310 334 336
4 335 311 309 337
4 306 308 336 338
4 337 309 307 339
4 304 306 338 340
4 339 307 305 341
4 296 304 340 342
4 341 305 298 343
4 302 300 344 322
4 345 301 303 324
4 300 297 346 344
4 347 299 301 345
4 297 296 342 346
4 343 298 299 347
4 189 185 348 349
4 350 188 189 349
4 185 181 351 348
4 352 184 188 350
4 181 177 353 351
4 354 180 184 352
4 177 173 355 353
4 356 176 180 354
4 173 169 357 355
4 358 172 176 356
4 169 165 359 357
4 360 168 172 358
4 165 161 361 359
4 362 164 168 360
4 161 157 363 361
4 364 160 164 362
4 157 150 365 363
4 366 154 160 364
4 367 368 369 370
4 371 368 367 372
4 373 367 370 374
4 372 367 373 375
4 376 373 374 377
4 375 373 376 378
4 125 128 376 377
4 376 128 130 378
4 131 125 377 379
4 378 130 380 381
4 136 131 379 382
4 381 380 383 384
4 141 136 382 385
4 384 383 144 386
4 382 374 370 385
4 372 375 384 386
4 382 379 377 374
4 378 381 384 375
4 387 385 370 369
4 372 386 388 371
4 145 141 385 387
4 386 144 148 388
4 275 389 390 277
4 391 392 276 278
4 145 387 389 275
4 392 388 148 276
4 149 277 390 393
4 391 278 155 394
4 149 393 365 150
4 366 394 155 154
4 395 396 397 398
4 399 400 395 398
4 398 397 401 402
4 403 399 398 402
4 402 401 404 405
4 406 403 402 405
4 405 404 369 368
4 371 406 405 368
4 387 369 404 389
4 406 371 388 392
4 361 363 407 408
4 409 364 362 410
4 411 412 396 395
4 400 413 411 395
4 414 415 416 417
4 418 419 414 417
4 417 416 420 421
4 422 418 417 421
4 421 420 412 411
4 413 422 421 411
4 357 359 423 424
4 425 360 358 426
4 424 423 427 428
4 429 425 426 430
4 428 427 431 432
4 433 429 430 434
4 432 431 435 436
4 437 433 434 438
4 439 440 436 435
4 438 441 442 437
4 412 420 436 440
4 438 422 413 441
4 420 416 432 436
4 434 418 422 438
4 416 415 428 432
4 430 419 418 434
4 415 443 424 428
4 426 444 419 430
4 355 357 424 443
4 426 358 356 444
4 445 443 415 414
4 419 444 445 414
4 348 351 353 355
4 354 352 350 356
4 348 355 443 445
4 444 356 350 445
3 349 348 445
3 445 350 349
4 359 361 408 423
4 410 362 360 425
4 408 446 427 423
4 429 447 410 425
4 446 448 431 427
4 449 450 447 429
4 439 435 431 448
4 449 437 442 450
4 404 401 451 452
4 453 403 406 454
4 407 452 451 455
4 453 454 409 456
4 363 365 452 407
4 454 366 364 409
4 365 390 389 452
4 392 391 366 454
3 389 404 452
3 454 406 392
3 365 393 390
3 391 394 457
4 439 458 459 440
4 460 461 442 462
4 412 440 459 396
4 460 462 413 400
4 455 451 459 458
4 460 453 456 461
4 401 397 459 451
4 460 399 403 453
3 396 459 397
3 399 460 400
4 463 464 465 466
4 467 468 469 470
4 463 466 471 472
4 473 470 469 474
4 472 471 475 476
4 477 473 474 478
4 476 475 479 480
4 481 477 478 482
4 480 479 483 484
4 485 481 482 486
4 484 483 487 488
4 489 485 486 490
4 483 491 492 487
4 493 494 485 489
4 479 495 491 483
4 494 496 481 485
4 475 497 495 479
4 496 498 477 481
4 471 499 497 475
4 498 500 473 477
4 466 501 499 471
4 500 502 470 473
4 466 465 503 501
4 504 467 470 502
4 407 455 505 506
4 507 456 409 508
4 455 488 487 505
4 489 490 456 507
4 408 407 506 446
4 508 409 410 447
4 448 509 465 464
4 467 510 450 468
4 487 492 511 505
4 512 493 489 507
4 513 514 505 511
4 507 515 516 512
4 517 514 513 518
4 516 515 519 520
4 521 522 514 517
4 515 523 524 519
4 509 522 521 525
4 524 523 510 526
4 465 509 525 503
4 526 510 467 504
4 446 522 509 448
4 510 523 447 450
4 446 506 514 522
4 515 508 447 523
3 506 505 514
3 515 507 508
4 503 525 527 528
4 529 526 504 530
4 525 521 531 527
4 532 524 526 529
4 521 517 533 531
4 534 519 524 532
4 517 518 535 533
4 536 520 519 534
4 518 513 537 535
4 538 516 520 536
4 513 511 539 537
4 540 541 542 543
4 511 492 544 539
4 545 493 512 546
4 501 503 528 547
4 530 504 502 548
4 499 501 547 549
4 548 502 500 550
4 551 552 553 554
4 555 500 498 556
4 557 551 554 558
4 556 498 496 559
4 491 495 560 561
4 559 496 494 562
4 492 491 561 544
4 562 494 493 545
4 535 537 563 564
4 565 538 536 566
4 564 563 567 568
4 569 565 566 570
4 568 567 571 572
4 573 569 570 574
4 572 571 575 576
4 577 573 574 578
4 547 528 572 576
4 574 530 548 578
4 527 568 572 528
4 574 570 529 530
4 527 531 564 568
4 566 532 529 570
4 535 564 531 533
4 532 566 536 534
4 539 544 563 537
4 565 545 546 538
4 561 567 563 544
4 565 569 562 545
4 579 571 567 561
4 569 573 559 562
4 580 575 571 579
4 573 577 556 559
4 549 576 575 580
4 577 578 550 556
3 547 576 549
3 550 578 548
4 484 488 581 582
4 583 490 486 584
4 480 484 582 585
4 584 486 586 587
4 476 480 585 588
4 589 482 478 590
4 472 476 588 591
4 590 478 592 593
4 463 472 591 594
4 593 592 469 595
4 464 463 594 596
4 595 469 468 597
4 594 582 581 596
4 583 584 595 597
4 594 591 585 582
4 589 593 595 584
3 591 588 585
3 589 590 593
4 439 448 464 596
4 468 450 442 597
4 439 596 581 458
4 583 597 442 461
4 455 458 581 488
4 583 461 456 490
