ply
format ascii 1.0
comment Created by Blender 2.69 (sub 0) - www.blender.org, source file: ''
element vertex 17
property float x
property float y
property float z
property uchar red
property uchar green
property uchar blue
element face 6
property list uchar uint vertex_indices
end_header
1.000000 1.000000 -1.000000 255 106 125
1.000000 -1.000000 -1.000000 255 203 209
-1.000000 -1.000000 -1.000000 87 255 167
-1.000000 1.000000 -1.000000 255 253 162
1.000000 0.999999 1.000000 96 234 185
-1.000000 1.000000 1.000000 99 230 188
-1.000000 -1.000000 1.000000 168 255 209
0.999999 -1.000001 1.000000 130 147 255
1.000000 0.999999 1.000000 97 231 188
1.000000 -1.000000 -1.000000 180 137 209
1.000000 -1.000000 -1.000000 138 154 255
-1.000000 -1.000000 1.000000 255 251 87
-1.000000 1.000000 1.000000 171 254 153
-1.000000 1.000000 -1.000000 195 253 130
1.000000 0.999999 1.000000 120 255 185
-1.000000 1.000000 -1.000000 120 255 185
-1.000000 1.000000 1.000000 127 255 188
4 0 1 2 3
4 4 5 6 7
4 0 8 7 9
4 10 7 11 2
4 2 11 12 13
4 14 0 15 16
